<?xml version="1.0" standalone="no"?>
<!DOCTYPE svg PUBLIC "-//W3C//DTD SVG 20010904//EN"
 "http://www.w3.org/TR/2001/REC-SVG-20010904/DTD/svg10.dtd">
<svg version="1.0" xmlns="http://www.w3.org/2000/svg"
 width="975.000000pt" height="980.000000pt" viewBox="0 0 975.000000 980.000000"
 preserveAspectRatio="xMidYMid meet">

<g transform="translate(0.000000,980.000000) scale(0.100000,-0.100000)"
fill="#000000" stroke="none">
<path d="M1370 9671 c-13 -28 -19 -54 -15 -62 5 -7 4 -10 -2 -6 -6 4 -14 0
-17 -9 -9 -24 -7 -31 4 -14 8 12 10 10 11 -10 1 -24 1 -23 10 5 5 16 10 41 13
55 2 14 9 38 15 54 19 48 6 39 -19 -13z"/>
<path d="M8376 9705 c3 -11 16 -59 28 -106 19 -73 24 -84 35 -71 8 8 10 17 5
21 -5 3 -10 15 -11 26 -1 12 -16 50 -33 85 -17 36 -28 56 -24 45z"/>
<path d="M1330 9545 c7 -9 10 -19 6 -22 -4 -4 -11 -1 -15 6 -6 9 -10 5 -15
-14 -4 -14 -4 -31 0 -37 4 -6 3 -8 -3 -5 -13 8 -66 -204 -90 -363 -13 -87 -18
-179 -18 -376 0 -236 2 -264 18 -281 11 -13 16 -34 15 -59 l-1 -39 -7 40 c-5
27 -6 17 -3 -30 3 -46 9 -73 19 -78 8 -4 14 -18 13 -30 -1 -21 -2 -20 -9 3
-18 57 -9 -33 15 -150 2 -8 4 -23 4 -33 1 -10 5 -15 11 -12 6 3 7 -1 4 -9 -3
-9 -10 -16 -14 -16 -16 0 -171 185 -235 280 -84 125 -128 208 -181 338 -24 59
-44 97 -44 85 0 -12 16 -113 35 -225 19 -111 41 -284 50 -383 17 -195 47 -344
100 -508 37 -116 116 -302 176 -416 21 -41 37 -77 35 -79 -2 -2 -53 34 -112
79 -363 274 -628 582 -753 876 -20 46 -37 79 -39 74 -6 -19 48 -293 88 -446
40 -154 113 -378 170 -520 61 -153 169 -367 181 -359 8 4 9 3 5 -4 -4 -6 5
-35 20 -63 20 -41 28 -49 36 -38 8 11 9 10 4 -4 -3 -10 2 -33 11 -50 23 -46
160 -251 186 -279 12 -14 48 -58 79 -99 71 -91 182 -209 197 -209 7 0 10 -4 7
-8 -3 -5 5 -17 17 -27 37 -32 0 -30 -110 6 -490 159 -853 365 -1099 621 l-82
85 24 -53 c152 -343 352 -631 625 -901 178 -174 279 -256 483 -388 222 -144
544 -289 771 -346 50 -13 94 -26 99 -30 17 -15 -94 -24 -284 -24 -161 1 -215
5 -309 24 -148 29 -300 80 -431 144 -58 28 -109 53 -115 56 -17 7 144 -159
245 -253 181 -169 434 -351 665 -479 l100 -56 205 -8 c210 -8 366 -3 479 17
75 13 89 7 35 -16 -131 -56 -370 -80 -526 -52 -42 8 -75 11 -72 7 2 -4 77 -31
166 -59 90 -29 174 -57 188 -63 24 -10 23 -11 -20 -18 -67 -11 -274 -10 -370
2 -234 29 -466 114 -695 253 -18 11 -6 -5 30 -39 280 -267 835 -538 1249 -610
107 -18 476 -21 439 -3 -31 15 -63 85 -63 139 0 25 6 68 14 97 12 48 12 52 -3
46 -70 -30 -291 -69 -291 -51 0 3 26 11 58 17 160 33 389 128 378 156 -3 9 12
23 42 38 104 53 245 185 344 323 61 85 79 116 144 243 31 59 44 77 44 60 0
-14 5 -118 11 -231 9 -152 9 -231 0 -300 -23 -197 -79 -349 -167 -447 -52 -59
-126 -108 -146 -96 -7 4 -10 3 -5 -1 4 -5 -10 -18 -30 -30 -33 -18 -48 -40
-110 -165 -94 -187 -196 -325 -378 -507 -78 -79 -140 -143 -138 -143 8 0 220
135 288 184 245 175 429 378 530 581 20 41 38 75 39 75 1 0 -1 -35 -6 -79 -12
-128 -75 -275 -185 -436 -30 -43 -23 -38 51 38 96 98 163 192 225 315 126 251
159 499 107 812 -33 197 -40 322 -27 465 20 213 70 407 145 570 44 95 142 193
285 285 148 94 243 161 238 166 -2 2 -35 -3 -73 -12 -99 -24 -295 -22 -396 4
-43 10 -90 18 -105 15 -24 -3 -25 -2 -8 6 11 5 15 10 8 10 -6 1 -19 4 -29 8
-12 4 -15 3 -10 -5 10 -17 0 -15 -18 3 -8 8 -45 30 -83 48 -73 35 -185 101
-218 128 -122 101 -178 151 -220 195 -64 67 -123 134 -118 134 3 0 -76 109
-107 147 -6 7 -10 17 -10 22 0 22 -15 17 -16 -5 -1 -13 3 -22 10 -21 6 1 10
-7 8 -18 -2 -11 -4 -27 -5 -36 -1 -9 -7 -16 -14 -16 -8 0 -9 6 -2 18 11 22 12
32 1 25 -5 -3 -7 16 -6 42 1 37 -4 57 -29 96 -29 45 -31 47 -45 30 -13 -18
-14 -18 -7 4 6 20 3 22 -37 21 -24 0 -74 -8 -113 -17 l-70 -17 0 -38 c-1 -23
4 -37 12 -37 9 0 11 10 7 33 -4 22 -3 28 4 18 6 -8 17 -11 26 -8 13 5 13 2 4
-18 -6 -14 -15 -25 -20 -25 -5 0 -3 -10 4 -22 7 -13 12 -26 13 -30 0 -3 3 -10
8 -14 4 -4 7 -12 7 -18 0 -6 -7 -2 -15 8 -8 10 -12 22 -10 26 3 4 -4 15 -15
25 -28 25 -25 12 8 -37 67 -100 153 -209 184 -232 13 -9 16 -14 8 -11 -8 4 36
-44 99 -105 62 -61 116 -109 119 -106 3 3 12 -2 21 -12 28 -31 115 -87 139
-89 13 -1 35 -9 48 -18 14 -9 29 -13 34 -10 6 3 10 1 10 -4 0 -15 -22 -14 -45
2 -23 16 -55 28 -55 22 0 -5 71 -42 83 -44 4 0 14 -7 23 -15 8 -9 27 -13 44
-11 17 2 28 0 25 -5 -3 -5 -13 -6 -22 -3 -11 4 -14 3 -9 -5 4 -7 11 -12 16
-12 5 0 33 -11 62 -24 101 -45 110 -48 122 -36 5 5 19 10 30 9 19 0 18 -2 -4
-11 -24 -10 -22 -12 35 -29 33 -11 68 -17 78 -15 9 2 17 0 17 -5 0 -5 10 -9
23 -9 12 0 29 -5 37 -11 20 -14 -96 -4 -205 18 -222 43 -537 197 -697 341 -26
24 -56 45 -65 46 -10 2 -18 7 -18 12 0 18 -41 65 -57 68 -10 1 -21 5 -24 9 -4
4 -12 3 -18 -3 -8 -6 -12 -3 -13 10 -1 11 2 22 8 25 5 3 7 0 6 -7 -2 -7 -2 -9
1 -5 2 4 11 0 19 -10 13 -17 13 -17 4 3 -5 11 -21 29 -35 39 -14 10 -22 24
-18 29 3 6 -2 5 -11 -3 -13 -10 -17 -10 -17 -1 0 10 -3 10 -14 1 -11 -9 -16
-9 -22 0 -4 8 -3 9 5 5 6 -4 14 0 17 9 6 13 8 14 15 3 5 -7 9 -8 9 -3 0 6 -12
24 -26 40 -22 27 -23 27 -9 3 11 -17 13 -28 6 -33 -6 -3 -12 -3 -12 2 -5 31
-13 54 -41 111 -17 35 -23 39 -32 27 -9 -13 -11 -11 -12 10 -1 14 2 23 6 20 5
-3 3 6 -3 20 -7 14 -17 23 -24 20 -7 -2 -21 8 -31 22 -18 25 -21 26 -53 13
-19 -7 -38 -18 -44 -25 -5 -7 -14 -12 -20 -12 -14 -1 -54 -84 -48 -100 8 -21
-15 -42 -61 -55 -22 -6 -45 -15 -51 -19 -5 -3 -24 -10 -40 -13 -27 -6 -32 -3
-43 26 -67 168 -133 437 -198 795 -14 82 -20 96 -48 119 -73 61 -163 153 -214
218 -12 16 -22 24 -22 17 0 -6 -5 -11 -11 -11 -6 0 -8 8 -4 19 3 12 -3 30 -20
49 -14 16 -25 34 -25 39 0 6 -9 21 -21 34 -59 68 -229 420 -229 474 0 9 -6 12
-15 9 -11 -5 -13 -2 -9 10 3 9 -4 58 -15 109 -30 124 -39 166 -46 202 -6 32
-24 195 -30 275 l-3 45 7 -40 c4 -26 6 -2 6 70 0 68 -5 118 -13 132 -6 12 -12
34 -11 50 1 23 3 20 14 -17 l12 -45 7 40 c3 22 15 90 26 151 11 61 20 120 20
132 0 12 5 22 11 22 7 0 8 12 4 33 -4 20 -3 27 3 19 7 -10 11 -3 15 23 6 40 1
65 -15 65 -6 0 -5 -7 2 -15z m-24 -111 c-3 -9 -6 -20 -6 -25 0 -5 -4 -9 -9 -9
-4 0 -6 11 -3 25 2 14 9 25 14 25 6 0 7 -7 4 -16z m-16 -122 c0 -12 -3 -12
-15 -2 -8 7 -15 13 -15 15 0 1 7 2 15 2 8 0 15 -7 15 -15z m-29 -65 c-7 -19
-9 -54 -7 -78 4 -36 4 -38 -3 -14 -12 43 -13 80 -1 111 15 39 24 22 11 -19z
m-37 -244 c-4 -48 -9 -79 -12 -69 -5 24 8 169 15 162 3 -3 2 -45 -3 -93z m19
-4 c-5 -5 -7 7 -4 29 5 34 6 35 9 8 2 -16 0 -32 -5 -37z m-26 -224 c0 -36 -3
-68 -8 -71 -10 -6 -12 59 -3 105 4 17 7 31 8 31 1 0 3 -29 3 -65z m31 -65 c-1
-29 -2 -26 -8 15 -11 69 -10 126 1 65 4 -25 7 -61 7 -80z m-31 -97 c-3 -10 -5
-2 -5 17 0 19 2 27 5 18 2 -10 2 -26 0 -35z m37 -3 c4 -25 3 -31 -4 -20 -5 8
-10 26 -10 39 0 32 6 24 14 -19z m-24 -82 c0 -34 -3 -59 -6 -55 -9 9 -10 117
-1 117 4 0 7 -28 7 -62z m44 -15 c-10 -40 -14 -41 -14 -5 0 18 5 32 10 32 6 0
8 -11 4 -27z m19 -66 c3 -8 -3 -14 -15 -14 -16 -2 -17 1 -8 13 15 17 17 17 23
1z m-14 -56 c12 -8 12 -14 3 -33 -12 -23 -12 -23 -6 0 3 12 1 22 -5 22 -13 0
-23 -33 -15 -54 3 -9 1 -16 -5 -16 -13 0 -14 14 -5 59 7 33 11 36 33 22z m41
-20 c0 -6 -4 -12 -8 -15 -5 -3 -9 1 -9 9 0 8 4 15 9 15 4 0 8 -4 8 -9z m-38
-73 c-8 -8 -9 -4 -5 13 4 13 8 18 11 10 2 -7 -1 -18 -6 -23z m35 10 c-3 -8 -6
-5 -6 6 -1 11 2 17 5 13 3 -3 4 -12 1 -19z m-37 -58 c0 -5 -4 -10 -10 -10 -5
0 -10 5 -10 10 0 6 5 10 10 10 6 0 10 -4 10 -10z m-9 -47 c10 -12 10 -15 1 -9
-10 6 -11 -2 -7 -36 3 -33 3 -37 -4 -18 -9 26 -14 80 -7 80 2 0 10 -8 17 -17z
m120 -57 c5 -6 9 -19 9 -30 0 -34 -18 -4 -24 39 -3 22 -3 31 0 20 3 -11 10
-24 15 -29z m-113 -61 c-3 -3 -9 2 -12 12 -6 14 -5 15 5 6 7 -7 10 -15 7 -18z
m169 -55 c3 -10 2 -11 -4 -4 -4 6 -15 14 -23 17 -11 5 -9 6 4 4 11 -1 21 -9
23 -17z m33 -94 c-1 -6 -7 4 -15 23 -8 18 -15 38 -15 45 1 6 7 -4 15 -23 8
-18 15 -38 15 -45z m-123 -8 c-3 -8 -6 -5 -6 6 -1 11 2 17 5 13 3 -3 4 -12 1
-19z m-2 -50 c4 -7 -2 -3 -15 9 -16 15 -21 27 -15 40 7 16 8 15 15 -9 4 -14
11 -32 15 -40z m-48 20 c-3 -8 -6 -5 -6 6 -1 11 2 17 5 13 3 -3 4 -12 1 -19z
m188 12 c3 -5 1 -10 -4 -10 -6 0 -11 5 -11 10 0 6 2 10 4 10 3 0 8 -4 11 -10z
m-58 -32 c-3 -7 -5 -2 -5 12 0 14 2 19 5 13 2 -7 2 -19 0 -25z m-99 -63 l1
-20 -9 20 c-5 11 -8 31 -8 45 l0 25 8 -25 c4 -14 8 -34 8 -45z m212 9 c0 -8
-4 -12 -10 -9 -5 3 -10 10 -10 16 0 5 5 9 10 9 6 0 10 -7 10 -16z m-193 -26
c-3 -7 -5 -2 -5 12 0 14 2 19 5 13 2 -7 2 -19 0 -25z m73 -82 c0 -3 -4 -8 -10
-11 -5 -3 -10 -1 -10 4 0 6 5 11 10 11 6 0 10 -2 10 -4z m7 -38 c-3 -8 -6 -5
-6 6 -1 11 2 17 5 13 3 -3 4 -12 1 -19z m198 1 c-5 -14 -2 -25 6 -30 8 -5 9
-9 3 -9 -6 0 -17 7 -24 15 -10 12 -10 18 0 30 17 21 23 19 15 -6z m-254 -42
c-10 -9 -11 -8 -5 6 3 10 9 15 12 12 3 -3 0 -11 -7 -18z m54 2 c4 -11 4 -23 1
-26 -3 -4 -6 1 -6 10 0 10 -4 17 -10 17 -5 0 -10 5 -10 10 0 18 19 10 25 -11z
m256 -46 c-12 -20 -14 -14 -5 12 4 9 9 14 11 11 3 -2 0 -13 -6 -23z m57 -29
c1 0 -11 -1 -27 -1 -22 0 -26 3 -17 13 8 9 15 9 26 1 8 -6 16 -12 18 -13z
m-330 -35 c-3 -8 -7 -3 -11 10 -4 17 -3 21 5 13 5 -5 8 -16 6 -23z m242 17 c0
-2 -7 -6 -15 -10 -8 -3 -15 -1 -15 4 0 6 7 10 15 10 8 0 15 -2 15 -4z m-90
-36 c0 -5 -12 -10 -27 -9 -25 0 -26 1 -8 9 27 12 35 12 35 0z m-122 -33 c14 6
15 5 2 -9 -16 -17 -31 -6 -29 22 1 11 2 11 6 -2 3 -11 10 -15 21 -11z m56 -12
c-22 -17 -34 -19 -34 -6 0 5 8 12 18 14 32 9 36 7 16 -8z m231 -677 c265 -449
573 -735 1016 -946 70 -33 144 -66 165 -73 52 -17 24 -24 -34 -9 -385 101
-692 315 -959 671 -102 136 -263 411 -263 449 0 26 20 2 75 -92z m-950 36 c14
-9 25 -13 25 -10 0 4 11 -1 25 -10 14 -9 22 -20 19 -25 -3 -5 1 -9 9 -9 7 0
24 -11 38 -26 17 -18 19 -23 6 -18 -9 3 -17 10 -17 15 0 5 -18 17 -41 25 -25
11 -36 20 -29 24 14 8 3 17 -20 15 -10 0 -14 -10 -13 -28 1 -15 -2 -27 -8 -27
-5 0 -9 8 -9 17 0 9 -8 26 -17 37 -17 20 -17 20 0 7 9 -8 21 -11 25 -7 4 4 -2
14 -12 22 -27 19 -11 18 19 -2z m2015 -24 c0 -5 -4 -10 -9 -10 -6 0 -13 5 -16
10 -3 6 1 10 9 10 9 0 16 -4 16 -10z m127 -32 c-3 -8 -6 -5 -6 6 -1 11 2 17 5
13 3 -3 4 -12 1 -19z m-27 2 c0 -5 -2 -10 -4 -10 -3 0 -8 5 -11 10 -3 6 -1 10
4 10 6 0 11 -4 11 -10z m-2009 -73 c-10 -9 -11 -8 -5 6 3 10 9 15 12 12 3 -3
0 -11 -7 -18z m44 3 c-3 -5 -12 -10 -18 -10 -7 0 -6 4 3 10 19 12 23 12 15 0z
m1568 -2 c3 -9 -5 -13 -24 -13 -26 0 -27 1 -12 13 9 6 20 12 24 12 4 0 9 -6
12 -12z m-1662 -27 c-9 -6 -10 -11 -2 -15 6 -4 14 0 17 9 6 13 8 14 15 3 5 -7
9 -17 9 -23 0 -5 -4 -4 -9 3 -7 11 -9 11 -14 -2 -4 -9 -1 -16 5 -16 6 0 8 -3
5 -7 -4 -3 -1 -13 6 -21 8 -10 8 -13 1 -9 -17 10 -53 74 -47 81 4 3 11 6 17 6
6 0 5 -4 -3 -9z m1926 -18 c-9 -9 -19 -14 -22 -11 -3 3 2 13 11 22 9 9 19 14
22 11 3 -3 -2 -13 -11 -22z m-1748 -27 c-2 -2 -13 8 -23 22 l-19 27 24 -22
c12 -12 21 -24 18 -27z m1370 -22 c-7 -18 -13 -24 -16 -16 -3 8 1 25 8 39 17
32 23 15 8 -23z m408 1 c1 -33 -1 -43 -11 -39 -17 7 -41 52 -33 61 4 3 7 -1 7
-10 0 -9 5 -17 10 -17 6 0 10 8 10 18 0 15 8 32 14 32 1 0 2 -20 3 -45z
m-1807 25 c0 -5 -2 -10 -4 -10 -3 0 -8 5 -11 10 -3 6 -1 10 4 10 6 0 11 -4 11
-10z m2030 -15 c4 3 24 -15 44 -39 36 -45 36 -57 0 -52 -14 2 -19 11 -19 34
-1 32 -9 47 -27 47 -6 0 -12 6 -14 13 -1 7 0 8 3 2 2 -5 8 -8 13 -5z m-2035
-13 c-3 -3 -11 0 -18 7 -9 10 -8 11 6 5 10 -3 15 -9 12 -12z m69 -12 c-6 -6
-10 -3 -10 10 0 13 4 16 10 10 7 -7 7 -13 0 -20z m-157 -12 c-3 -8 -6 -5 -6 6
-1 11 2 17 5 13 3 -3 4 -12 1 -19z m1683 -3 c4 2 16 -5 26 -16 16 -17 16 -22
4 -29 -19 -12 -21 -12 -40 0 -8 5 -11 13 -6 17 5 4 11 2 13 -4 6 -17 23 -16
23 1 0 7 -9 16 -20 19 -11 3 -20 11 -19 19 0 10 2 10 6 0 2 -6 8 -10 13 -7z
m-1633 -73 c-12 -16 -37 14 -36 43 1 17 2 17 6 3 7 -28 23 -21 24 10 1 24 2
23 8 -8 4 -19 3 -41 -2 -48z m123 64 c0 -2 -7 -7 -16 -10 -8 -3 -12 -2 -9 4 6
10 25 14 25 6z m15 -16 c-10 -11 -13 -20 -7 -20 6 0 14 5 17 10 9 14 22 12 22
-3 0 -8 -15 -12 -39 -12 l-40 0 29 22 c35 28 42 29 18 3z m70 -30 c3 -5 2 -10
-4 -10 -5 0 -13 5 -16 10 -3 6 -2 10 4 10 5 0 13 -4 16 -10z m1704 -12 c7 11
9 10 14 -3 4 -9 3 -13 -3 -10 -6 3 -10 2 -10 -4 0 -5 5 -13 10 -16 6 -3 10
-11 10 -16 0 -6 -11 3 -25 19 -14 17 -25 34 -25 38 0 5 5 2 10 -6 8 -12 12
-13 19 -2z m-1684 -46 c-3 -3 -18 7 -33 23 l-27 28 33 -23 c18 -12 31 -25 27
-28z m41 -7 c1 -8 -2 -13 -7 -9 -5 3 -7 10 -4 15 4 5 1 9 -4 9 -6 0 -11 5 -11
12 0 17 23 -7 26 -27z m-73 4 c5 -3 2 -9 -5 -12 -9 -3 -14 3 -15 15 -1 11 1
16 5 12 4 -5 11 -12 15 -15z m1095 -4 c3 -3 -7 -5 -21 -5 -15 0 -27 4 -27 9 0
10 38 7 48 -4z m-921 -66 c34 -21 39 -39 13 -47 -9 -3 -11 1 -7 11 6 16 -38
57 -60 57 -6 0 -15 12 -22 27 l-12 27 27 -27 c15 -15 42 -37 61 -48z m1830 65
c-3 -3 3 -15 13 -27 19 -20 18 -43 -1 -31 -5 3 -7 9 -4 14 3 4 -2 13 -10 20
-14 11 -12 30 2 30 4 0 4 -3 0 -6z m-2110 -48 c1 -25 0 -27 -7 -11 -5 11 -9
14 -9 7 -1 -10 -4 -10 -15 0 -9 8 -11 17 -5 24 17 20 34 11 36 -20z m1201 -33
c6 -18 9 -33 7 -33 -4 0 -45 89 -45 98 0 13 27 -35 38 -65z m718 50 c-1 -7 -8
-19 -15 -26 -9 -9 -14 -9 -20 2 -5 8 -7 20 -4 27 6 17 41 14 39 -3z m-1726
-13 c0 -5 9 -10 20 -10 11 0 20 -5 20 -11 0 -6 -9 -8 -20 -4 -12 4 -27 1 -35
-5 -11 -9 -15 -9 -15 -1 0 6 4 11 10 11 5 0 7 7 4 15 -4 8 -1 15 5 15 6 0 11
-4 11 -10z m2031 -72 c14 -15 30 -24 34 -20 5 4 5 1 1 -5 -9 -17 -53 10 -61
38 -4 11 -10 17 -15 14 -12 -8 -33 23 -24 36 5 9 12 6 23 -12 9 -13 28 -36 42
-51z m-2145 -16 c1 -18 -3 -35 -9 -39 -15 -9 -38 28 -31 51 6 18 5 19 -8 8
-13 -10 -17 -10 -21 1 -4 10 4 14 31 12 34 -1 37 -4 38 -33z m1180 24 c15 -16
18 -26 6 -26 -4 0 -13 9 -20 20 -14 23 -7 26 14 6z m697 -3 c18 -17 19 -17 33
2 8 10 14 14 14 9 0 -6 -5 -15 -11 -21 -8 -8 -8 -17 1 -34 l11 -24 -19 24
c-11 13 -30 32 -43 42 -13 10 -20 19 -15 19 5 0 18 -8 29 -17z m229 -30 c-10
-4 -10 -8 0 -21 11 -13 11 -14 -2 -10 -9 3 -15 17 -15 36 0 28 1 30 15 15 12
-12 12 -16 2 -20z m-412 8 c5 -11 10 -26 10 -33 -1 -7 -7 1 -15 17 -7 17 -14
24 -14 17 -1 -15 -21 -6 -21 9 0 17 29 9 40 -10z m-1510 -6 c0 -8 -4 -15 -10
-15 -5 0 -10 7 -10 15 0 8 5 15 10 15 6 0 10 -7 10 -15z m1000 -40 c0 -5 -9 1
-20 15 -11 14 -20 30 -20 35 0 6 9 -1 20 -15 11 -14 20 -29 20 -35z m-924 30
c-7 -20 3 -19 27 3 19 16 20 16 14 -1 -5 -15 -3 -17 12 -12 11 3 24 -1 32 -12
12 -16 12 -17 -1 -7 -8 7 -34 10 -57 8 -31 -2 -43 0 -43 10 0 12 9 26 18 26 2
0 2 -7 -2 -15z m1879 -5 c3 -5 1 -10 -4 -10 -6 0 -11 5 -11 10 0 6 2 10 4 10
3 0 8 -4 11 -10z m60 -10 c-3 -5 -11 -10 -16 -10 -6 0 -7 5 -4 10 3 6 11 10
16 10 6 0 7 -4 4 -10z m-2155 -60 c5 -8 12 -12 16 -8 4 4 1 15 -6 23 -18 21 3
46 23 26 10 -10 8 -11 -8 -5 l-20 7 20 -23 c14 -16 16 -24 8 -27 -7 -3 -13 -9
-13 -14 0 -6 4 -8 9 -4 5 3 12 1 15 -4 4 -5 2 -12 -3 -16 -12 -7 -91 77 -84
89 6 8 23 -10 43 -44z m76 23 c-10 -10 -19 5 -10 18 6 11 8 11 12 0 2 -7 1
-15 -2 -18z m1878 0 c-7 -36 -8 -37 -29 -13 -10 11 -13 20 -7 20 7 0 12 -5 12
-12 0 -13 14 -2 16 13 2 16 4 19 8 19 3 0 2 -12 0 -27z m-1534 -47 c0 -2 -48
0 -65 3 -5 1 -4 5 4 10 8 5 9 11 3 15 -6 3 -13 2 -17 -4 -3 -5 -14 -10 -23
-10 -15 1 -15 2 2 15 11 8 14 15 8 15 -7 0 -12 4 -12 10 0 5 23 -5 50 -22 28
-17 50 -32 50 -32z m1800 39 c13 -14 19 -25 14 -26 -5 -1 2 -5 16 -9 22 -7 22
-8 4 -9 -11 -1 -29 6 -40 14 -19 15 -19 15 1 8 20 -6 20 -6 1 15 -10 12 -23
19 -27 16 -5 -3 -9 0 -9 5 0 18 15 12 40 -14z m-1915 5 c3 -5 1 -10 -4 -10 -6
0 -11 5 -11 10 0 6 2 10 4 10 3 0 8 -4 11 -10z m935 -5 c0 -8 -4 -15 -8 -15
-5 0 -9 7 -9 15 0 8 4 15 9 15 4 0 8 -7 8 -15z m505 -14 c3 -5 1 -12 -5 -16
-6 -4 -8 -11 -5 -16 4 -5 2 -9 -3 -9 -5 0 -9 11 -9 25 0 25 11 33 22 16z m-45
-41 c0 -5 -2 -10 -4 -10 -3 0 -8 5 -11 10 -3 6 -1 10 4 10 6 0 11 -4 11 -10z
m334 -2 c-2 -4 4 -11 13 -17 10 -6 14 -10 8 -10 -5 -1 -20 7 -33 17 -21 17
-22 18 -3 18 11 0 18 -4 15 -8z m71 2 c-3 -5 -12 -10 -18 -10 -7 0 -6 4 3 10
19 12 23 12 15 0z m-1998 -6 c-3 -3 -12 -4 -19 -1 -8 3 -5 6 6 6 11 1 17 -2
13 -5z m323 -4 c0 -5 -2 -10 -4 -10 -3 0 -8 5 -11 10 -3 6 -1 10 4 10 6 0 11
-4 11 -10z m160 -75 c36 -20 54 -33 40 -30 -14 4 -37 16 -53 26 -15 11 -33 17
-39 13 -7 -4 -8 -3 -4 4 10 17 -41 27 -59 12 -9 -7 -18 -10 -22 -7 -3 4 2 9
11 13 22 8 20 21 -4 29 -11 3 -20 11 -20 16 0 5 19 -1 43 -15 23 -13 71 -41
107 -61z m1203 78 c-7 -2 -19 -2 -25 0 -7 3 -2 5 12 5 14 0 19 -2 13 -5z
m-1493 -23 c0 -5 -2 -10 -4 -10 -3 0 -8 5 -11 10 -3 6 -1 10 4 10 6 0 11 -4
11 -10z m2000 6 c0 -3 -4 -8 -10 -11 -5 -3 -10 -1 -10 4 0 6 5 11 10 11 6 0
10 -2 10 -4z m-206 -22 c5 -14 4 -15 -9 -4 -17 14 -19 20 -6 20 5 0 12 -7 15
-16z m254 -4 c8 0 36 -16 63 -36 27 -19 53 -33 59 -29 6 4 9 1 8 -7 -2 -8 6
-13 19 -12 12 0 19 -4 16 -9 -4 -6 -71 -5 -100 2 -2 1 -3 5 -3 10 0 5 10 7 22
3 14 -3 19 -2 14 6 -4 7 -14 12 -22 12 -8 0 -26 12 -39 26 -18 20 -29 24 -47
19 -13 -4 -20 -4 -16 0 4 5 2 15 -4 24 -10 13 -10 14 2 4 8 -7 20 -13 28 -13z
m-2252 1 c-3 -5 4 -11 16 -15 18 -4 20 -8 11 -17 -9 -9 -16 -9 -28 1 -17 14
-20 40 -4 40 5 0 8 -4 5 -9z m85 -68 c8 2 11 2 7 0 -5 -3 -8 -11 -8 -19 0 -9
4 -13 9 -9 5 3 13 1 16 -5 4 -6 3 -10 -2 -9 -4 1 -15 1 -23 -1 -11 -1 -9 -4 5
-10 20 -8 19 -9 -1 -9 -17 -1 -21 5 -21 25 0 15 -8 31 -17 36 -9 5 -16 14 -16
20 0 6 8 4 19 -6 10 -9 24 -15 32 -13z m369 17 c0 -5 9 -10 20 -10 11 0 20 -5
20 -11 0 -6 -9 -8 -20 -4 -12 4 -27 1 -35 -5 -11 -9 -15 -9 -15 -1 0 6 4 11
10 11 5 0 7 7 4 15 -4 8 -1 15 5 15 6 0 11 -4 11 -10z m830 0 c0 -5 -2 -10 -4
-10 -3 0 -8 5 -11 10 -3 6 -1 10 4 10 6 0 11 -4 11 -10z m215 -10 c-10 -11
-21 -18 -23 -15 -3 3 3 12 14 20 27 20 30 18 9 -5z m-260 0 c3 -5 1 -10 -4
-10 -6 0 -11 5 -11 10 0 6 2 10 4 10 3 0 8 -4 11 -10z m-715 -14 c0 -3 -4 -8
-10 -11 -5 -3 -10 -1 -10 4 0 6 5 11 10 11 6 0 10 -2 10 -4z m1780 -25 c0 -6
-4 -12 -8 -15 -5 -3 -9 1 -9 9 0 8 4 15 9 15 4 0 8 -4 8 -9z m-996 -13 c-7
-11 -34 -10 -34 1 0 6 9 9 19 8 11 0 17 -5 15 -9z m913 6 c-3 -3 -12 -4 -19
-1 -8 3 -5 6 6 6 11 1 17 -2 13 -5z m-2037 -14 c0 -5 -2 -10 -4 -10 -3 0 -8 5
-11 10 -3 6 -1 10 4 10 6 0 11 -4 11 -10z m470 0 c8 -5 12 -11 10 -14 -3 -2
-14 2 -24 10 -22 15 -10 19 14 4z m710 0 c0 -5 -7 -10 -15 -10 -8 0 -15 5 -15
10 0 6 7 10 15 10 8 0 15 -4 15 -10z m80 0 c0 -5 -7 -10 -16 -10 -8 0 -12 5
-9 10 3 6 10 10 16 10 5 0 9 -4 9 -10z m808 -11 c-10 -7 -10 -9 3 -9 9 0 16
-7 16 -15 0 -13 -2 -13 -18 1 -9 8 -30 19 -45 25 -29 9 -29 9 4 4 20 -3 31 -1
27 5 -3 6 1 7 10 3 13 -5 14 -7 3 -14z m-1508 -27 c3 -2 -6 -1 -20 3 -14 4
-32 14 -40 22 -12 12 -7 11 20 -2 19 -10 37 -20 40 -23z m1740 10 c0 -15 -2
-15 -10 -2 -13 20 -13 33 0 25 6 -3 10 -14 10 -23z m-2310 -3 c0 -5 -4 -9 -10
-9 -5 0 -10 7 -10 16 0 8 5 12 10 9 6 -3 10 -10 10 -16z m1225 12 c3 -5 1 -12
-5 -16 -5 -3 -10 1 -10 9 0 18 6 21 15 7z m923 -27 c-3 -14 -5 -12 -10 9 -3
19 -2 25 4 19 6 -6 8 -18 6 -28z m-2177 -6 c7 -13 17 -17 32 -13 16 5 18 4 8
-3 -11 -8 -8 -13 13 -27 15 -10 25 -20 22 -22 -4 -4 -126 86 -126 93 0 10 43
-13 51 -28z m2408 16 c2 -2 2 -6 0 -9 -8 -7 -49 7 -49 17 0 8 38 2 49 -8z
m-2315 -35 c-3 -6 0 -15 7 -20 7 -4 10 -11 6 -15 -4 -4 -14 1 -21 12 -11 14
-11 21 -3 26 17 11 19 10 11 -3z m2192 -11 c-9 -5 -24 -7 -34 -5 -12 3 -10 5
6 6 13 0 20 5 17 11 -4 6 1 7 11 3 15 -5 15 -7 0 -15z m51 16 c-3 -3 -12 -4
-19 -1 -8 3 -5 6 6 6 11 1 17 -2 13 -5z m-1684 -44 c31 -34 19 -42 -13 -8 -18
19 -26 38 -17 38 2 0 16 -13 30 -30z m1690 23 c-7 -2 -19 -2 -25 0 -7 3 -2 5
12 5 14 0 19 -2 13 -5z m-6 -19 c-3 -3 -12 -4 -19 -1 -8 3 -5 6 6 6 11 1 17
-2 13 -5z m-2139 -52 c2 -6 -4 -15 -13 -18 -13 -5 -14 -8 -3 -15 7 -5 9 -9 3
-9 -20 1 -47 29 -39 41 5 9 2 10 -9 6 -9 -3 -19 -3 -21 2 -3 4 14 7 36 7 24
-1 43 -6 46 -14z m538 -60 c-7 -6 -45 39 -45 53 0 6 11 -3 25 -19 14 -15 23
-31 20 -34z m-416 -6 c0 -11 -19 -15 -25 -6 -3 5 1 10 9 10 9 0 16 -2 16 -4z
m-33 -38 c-3 -8 -6 -5 -6 6 -1 11 2 17 5 13 3 -3 4 -12 1 -19z m58 12 c3 -5 2
-10 -4 -10 -5 0 -13 5 -16 10 -3 6 -2 10 4 10 5 0 13 -4 16 -10z m0 -30 c18
-8 17 -9 -7 -9 -15 -1 -30 4 -33 9 -7 12 12 12 40 0z m47 -27 c-10 -4 -8 -9 7
-19 17 -12 24 -12 40 -2 17 10 23 10 33 -1 11 -10 9 -12 -7 -10 -11 2 -26 0
-32 -4 -8 -5 -26 -1 -43 9 -28 17 -25 35 5 33 6 0 4 -3 -3 -6z m118 -3 c24
-15 7 -18 -20 -3 -14 7 -18 13 -10 13 8 0 22 -4 30 -10z m281 -33 c-10 -9 -11
-8 -5 6 3 10 9 15 12 12 3 -3 0 -11 -7 -18z m-297 -32 c11 -8 15 -15 10 -15
-6 0 -19 7 -30 15 -10 8 -14 14 -9 14 6 0 19 -6 29 -14z m273 -32 c-9 -9 -20
-14 -24 -10 -3 4 2 14 13 21 25 19 33 10 11 -11z m-162 11 c13 -5 14 -8 3 -15
-9 -6 -5 -9 14 -9 15 0 30 -4 33 -10 9 -14 -14 -12 -50 5 -16 7 -23 14 -15 14
13 1 13 2 0 11 -17 11 -9 13 15 4z m68 -1 c-7 -2 -21 -2 -30 0 -10 3 -4 5 12
5 17 0 24 -2 18 -5z m50 -40 c-7 -2 -19 -2 -25 0 -7 3 -2 5 12 5 14 0 19 -2
13 -5z m-448 -86 c157 -61 310 -107 477 -142 l113 -24 -75 5 c-108 8 -252 32
-350 60 -88 26 -267 109 -310 145 -30 25 -33 26 145 -44z m1430 -594 c-26 -19
-103 -58 -135 -68 -51 -16 2 27 75 61 70 32 98 36 60 7z m-539 -198 c29 -22 5
-32 -95 -41 -140 -11 -411 13 -411 37 0 5 78 10 173 12 94 1 204 4 243 5 49 1
76 -2 90 -13z"/>
<path d="M3053 6548 c0 -13 1 -17 4 -10 4 10 8 10 21 0 12 -9 11 -6 -2 10 -11
12 -20 22 -20 22 -1 0 -2 -10 -3 -22z"/>
<path d="M2926 6421 c-4 -5 -2 -12 3 -15 5 -4 12 -2 15 3 4 5 2 12 -3 15 -5 4
-12 2 -15 -3z"/>
<path d="M1093 6335 c-7 -8 -10 -21 -7 -29 7 -18 24 -22 24 -6 0 6 -5 10 -11
10 -8 0 -7 5 1 15 16 19 9 28 -7 10z"/>
<path d="M1561 5861 c-8 -5 -9 -11 -3 -15 5 -3 15 1 22 9 14 16 3 20 -19 6z"/>
<path d="M8455 9490 c3 -19 14 -100 26 -180 12 -80 22 -160 24 -179 1 -18 8
-37 15 -41 8 -5 8 -9 2 -11 -7 -3 -12 -63 -13 -168 -2 -164 -23 -354 -53 -475
-15 -57 -15 -66 -1 -92 8 -16 15 -38 15 -49 -1 -13 -7 -7 -19 19 l-19 39 -8
-34 c-4 -19 -7 -40 -5 -46 1 -7 -2 -13 -7 -13 -6 0 -13 -11 -16 -24 -3 -13 -9
-32 -12 -43 -4 -11 -3 -14 3 -6 5 6 8 -10 9 -40 1 -49 1 -50 -8 -18 -7 25 -12
31 -21 22 -14 -14 -13 -84 2 -89 14 -5 15 -22 1 -22 -5 0 -12 11 -16 25 -8 33
-17 25 -39 -32 -10 -26 -33 -73 -50 -103 -26 -44 -32 -65 -30 -104 2 -44 1
-46 -11 -25 -8 16 -9 26 -2 30 6 4 9 12 6 19 -2 7 -21 -16 -43 -51 -48 -78
-98 -147 -150 -209 -71 -84 -76 -91 -69 -102 5 -7 2 -9 -8 -5 -11 4 -35 -13
-72 -50 -31 -31 -56 -57 -56 -57 0 -1 20 0 45 2 31 3 45 0 45 -8 0 -9 -16 -11
-55 -8 -66 6 -77 -4 -95 -82 -24 -107 -120 -429 -156 -526 -84 -227 -201 -429
-317 -546 -221 -223 -539 -378 -987 -481 -258 -60 -275 -62 -495 -62 -200 0
-236 4 -374 37 -8 2 -23 -26 -40 -75 -15 -42 -30 -75 -33 -71 -4 3 -12 -21
-18 -53 -16 -76 -7 -226 20 -323 63 -226 249 -481 448 -613 260 -172 446 -253
700 -304 182 -36 401 -36 592 1 184 35 398 94 560 155 l135 50 -80 -7 c-44 -4
-181 -7 -305 -7 -204 0 -234 2 -322 24 -54 13 -98 28 -98 33 0 5 8 7 18 4 54
-16 252 -28 382 -22 243 11 280 16 280 37 0 11 5 19 11 19 6 0 9 -7 5 -15 -7
-19 12 -19 129 0 124 20 216 46 208 58 -4 6 -1 7 6 3 16 -11 163 53 154 67 -3
6 -1 7 5 3 15 -9 55 18 44 29 -4 5 -2 5 4 2 14 -8 56 21 49 34 -4 5 -11 9 -16
9 -6 0 -7 -5 -3 -11 4 -8 0 -8 -15 0 -26 14 -26 18 0 32 17 9 20 8 14 -2 -6
-9 -3 -11 9 -6 9 4 15 3 12 -2 -3 -5 1 -11 9 -14 12 -5 105 54 155 99 8 8 29
25 45 39 l30 25 -55 -27 c-30 -15 -57 -30 -60 -34 -3 -3 -15 -9 -27 -13 -13
-4 -23 -12 -23 -17 0 -13 18 -11 23 4 4 9 6 9 6 0 2 -21 -20 -25 -39 -8 -10 9
-20 12 -24 7 -3 -6 0 -12 6 -15 7 -2 0 -4 -17 -4 -43 -1 -251 -59 -234 -66 8
-3 -2 -3 -22 0 -20 3 -59 0 -86 -5 -27 -6 -107 -14 -179 -17 -71 -4 -162 -11
-202 -16 -101 -13 -462 -11 -539 2 -69 12 -80 24 -31 34 28 7 29 9 13 18 -10
5 -56 14 -102 18 -47 5 -124 22 -173 38 -104 35 -312 134 -290 139 8 1 86 -22
173 -53 l157 -55 103 11 c117 11 235 37 345 75 99 34 262 110 262 122 0 5 57
21 128 36 324 70 548 146 782 268 429 222 788 547 1065 963 86 128 253 440
243 451 -3 2 -29 -23 -58 -57 -160 -183 -544 -419 -925 -566 -126 -49 -338
-114 -352 -108 -7 2 -13 1 -13 -4 0 -5 -12 -16 -26 -26 l-27 -17 16 22 c8 12
25 29 36 37 12 8 20 21 19 28 -3 13 0 15 25 15 7 0 8 -3 2 -8 -5 -4 -17 -16
-25 -27 -24 -33 70 55 142 132 47 50 66 77 62 88 -5 12 -2 16 12 13 12 -2 18
2 16 10 -1 8 2 11 7 8 10 -7 72 66 75 89 1 8 6 18 11 22 4 4 5 1 1 -7 -4 -8 4
-1 18 15 45 51 47 55 41 66 -4 5 0 21 9 34 19 28 20 39 5 30 -7 -5 -9 3 -7 21
3 25 8 29 36 30 31 1 42 -9 22 -21 -5 -3 -10 -1 -10 6 0 8 -4 8 -15 -1 -12
-10 -15 -10 -15 0 0 8 -3 11 -6 7 -4 -3 -4 -14 0 -23 5 -13 9 -14 21 -4 23 19
18 1 -10 -32 -14 -16 -25 -34 -25 -40 0 -14 -1 -15 53 59 58 78 84 120 136
218 32 60 37 73 17 50 -14 -16 -25 -25 -25 -20 0 14 31 50 51 57 37 15 181
315 252 528 97 291 196 687 196 788 0 8 -27 -40 -59 -105 -127 -253 -297 -466
-541 -677 -117 -102 -360 -285 -360 -273 0 2 22 44 48 93 168 309 262 594 317
959 9 61 29 178 45 260 27 143 53 335 46 342 -2 2 -16 -31 -31 -74 -61 -175
-177 -360 -341 -545 -105 -119 -119 -129 -121 -85 -1 30 -1 30 7 7 4 -14 9
-18 9 -10 1 8 9 61 19 118 13 68 15 102 8 102 -8 0 -7 3 0 8 32 20 55 502 35
722 -16 175 -31 249 -48 243 -7 -3 -13 2 -13 12 0 9 5 13 10 10 6 -3 10 1 10
10 0 20 -35 149 -54 200 l-16 40 5 -35z m45 -194 c-7 -7 -10 -5 -10 6 0 8 -2
31 -5 49 -5 34 -5 34 10 -5 10 -27 12 -43 5 -50z m19 -101 l0 -20 -9 20 c-5
11 -9 27 -9 35 -1 13 0 13 9 0 5 -8 9 -24 9 -35z m8 -67 c-3 -8 -6 -5 -6 6 -1
11 2 17 5 13 3 -3 4 -12 1 -19z m20 -70 c-3 -8 -6 -5 -6 6 -1 11 2 17 5 13 3
-3 4 -12 1 -19z m-20 -50 c-3 -8 -6 -5 -6 6 -1 11 2 17 5 13 3 -3 4 -12 1 -19z
m24 -107 c0 -51 -2 -95 -5 -99 -3 -3 -6 41 -6 98 0 57 2 101 5 98 3 -3 6 -46
6 -97z m-24 -128 c-3 -10 -5 -4 -5 12 0 17 2 24 5 18 2 -7 2 -21 0 -30z m30
-140 c-2 -21 -4 -6 -4 32 0 39 2 55 4 38 2 -18 2 -50 0 -70z m-19 2 l-1 -40
-7 35 c-4 19 -8 26 -9 16 0 -11 -4 -17 -7 -13 -4 3 -3 23 1 44 6 32 9 35 15
18 5 -11 8 -38 8 -60z m0 -195 c3 -102 -3 -103 -12 -2 -3 40 -8 78 -12 84 -4
6 -1 9 7 6 10 -3 15 -28 17 -88z m-41 43 c-3 -10 -5 -4 -5 12 0 17 2 24 5 18
2 -7 2 -21 0 -30z m-24 -53 c-3 -12 -8 -19 -11 -16 -5 6 5 36 12 36 2 0 2 -9
-1 -20z m23 -38 c-12 -11 -18 7 -10 30 l8 23 4 -23 c2 -13 1 -26 -2 -30z m21
11 c-3 -10 -5 -4 -5 12 0 17 2 24 5 18 2 -7 2 -21 0 -30z m3 -63 c-1 -8 -7
-24 -15 -34 -14 -19 -15 -18 -14 15 0 29 2 31 10 14 7 -15 8 -12 4 15 -4 25
-2 31 5 20 5 -8 10 -22 10 -30z m-43 -2 c-3 -8 -6 -5 -6 6 -1 11 2 17 5 13 3
-3 4 -12 1 -19z m20 -90 c-3 -7 -5 -2 -5 12 0 14 2 19 5 13 2 -7 2 -19 0 -25z
m-43 -19 c-3 -5 -10 -7 -15 -3 -5 3 -7 10 -3 15 3 5 10 7 15 3 5 -3 7 -10 3
-15z m38 -76 c2 -24 0 -43 -4 -43 -5 0 -7 26 -7 58 1 61 6 55 11 -15z m15 45
c-3 -8 -6 -5 -6 6 -1 11 2 17 5 13 3 -3 4 -12 1 -19z m-27 -198 c0 -5 -4 -10
-10 -10 -5 0 -10 5 -10 10 0 6 5 10 10 10 6 0 10 -4 10 -10z m-164 -62 c1 -28
-1 -36 -6 -23 -7 19 -7 19 -19 -4 -18 -32 -27 -17 -11 17 13 25 30 52 34 52 1
0 2 -19 2 -42z m130 20 c5 -7 3 -8 -6 -3 -10 6 -12 1 -7 -26 5 -29 4 -31 -5
-12 -15 32 1 69 18 41z m-16 -98 c0 -3 5 2 10 10 11 18 12 3 1 -25 -7 -17 -8
-17 -15 8 -3 15 -10 26 -14 23 -4 -2 -8 12 -9 32 l-2 37 14 -40 c8 -22 15 -42
15 -45z m-13 -32 c-3 -8 -6 -5 -6 6 -1 11 2 17 5 13 3 -3 4 -12 1 -19z m-233
-89 c-29 -31 -39 -32 -28 -5 3 9 12 16 20 16 8 0 14 8 14 18 0 25 14 38 18 17
2 -9 -9 -30 -24 -46z m-31 -53 c4 -10 1 -13 -8 -9 -8 3 -12 9 -9 14 7 12 11
11 17 -5z m-8 -45 c-6 -5 -25 10 -25 20 0 5 6 4 14 -3 8 -7 12 -15 11 -17z
m182 -8 c-3 -10 -5 -4 -5 12 0 17 2 24 5 18 2 -7 2 -21 0 -30z m26 2 c-3 -9
-8 -14 -10 -11 -3 3 -2 9 2 15 9 16 15 13 8 -4z m-11 -91 c-7 -12 -9 -5 -9 27
0 40 1 41 9 17 6 -17 6 -34 0 -44z m-270 39 c4 -14 -2 -18 -21 -19 -14 -1 -20
1 -13 3 6 3 12 11 12 19 0 20 17 17 22 -3z m-75 -95 c-3 -8 -6 -5 -6 6 -1 11
2 17 5 13 3 -3 4 -12 1 -19z m286 -28 c-3 -11 -7 -20 -9 -20 -2 0 -4 9 -4 20
0 11 4 20 9 20 5 0 7 -9 4 -20z m-20 -70 c-3 -11 -9 -20 -14 -20 -12 0 -11 17
1 25 5 3 7 20 5 38 -5 31 -5 31 4 5 5 -15 7 -37 4 -48z m1018 33 c-12 -20 -14
-14 -5 12 4 9 9 14 11 11 3 -2 0 -13 -6 -23z m-1371 -8 c-7 -8 -17 -15 -23
-15 -6 0 -2 8 9 19 22 21 33 19 14 -4z m375 -25 c-4 -17 -9 -30 -11 -27 -2 2
-1 18 2 36 4 17 9 30 11 27 3 -2 2 -19 -2 -36z m-332 3 c-7 -2 -19 -2 -25 0
-7 3 -2 5 12 5 14 0 19 -2 13 -5z m131 -11 c3 -5 -8 -6 -25 -4 -16 2 -29 6
-29 8 0 8 49 4 54 -4z m-91 -19 c-7 -2 -21 -2 -30 0 -10 3 -4 5 12 5 17 0 24
-2 18 -5z m164 1 c-3 -3 -12 -4 -19 -1 -8 3 -5 6 6 6 11 1 17 -2 13 -5z m-47
-15 c27 -6 50 -15 50 -20 0 -5 -9 -5 -22 0 -13 5 -39 14 -58 19 -48 14 -32 14
30 1z m137 -11 c-3 -8 -6 -5 -6 6 -1 11 2 17 5 13 3 -3 4 -12 1 -19z m-19 -32
c-7 -8 -17 -12 -22 -9 -4 3 -2 9 5 14 22 13 31 11 17 -5z m850 -206 c-7 -11
-17 -20 -22 -20 -5 0 -1 9 9 20 10 11 20 20 22 20 2 0 -2 -9 -9 -20z m-28 -35
c0 -2 -10 -10 -22 -16 -21 -11 -22 -11 -9 4 13 16 31 23 31 12z m-40 -43 c0
-13 -12 -22 -22 -16 -10 6 -1 24 13 24 5 0 9 -4 9 -8z m-36 -52 c-6 -6 -15 -5
-24 1 -12 9 -12 10 4 5 14 -5 17 -3 12 11 -6 15 -5 16 5 6 8 -8 10 -16 3 -23z
m-54 -16 c-8 -8 -23 -20 -34 -25 -13 -7 -9 -1 9 15 34 29 43 33 25 10z m14
-29 c-17 -27 -29 -31 -39 -15 -3 5 0 7 8 4 9 -3 16 3 20 15 3 12 10 21 16 21
7 0 5 -10 -5 -25z m-873 -58 c-38 -63 -110 -197 -105 -197 3 0 -4 -10 -16 -22
-22 -24 -27 -44 -8 -32 7 4 8 3 4 -5 -4 -6 -11 -9 -16 -6 -5 3 -14 -5 -21 -17
-10 -20 -10 -21 2 -11 12 9 14 5 15 -28 0 -41 -9 -51 -20 -22 -6 15 -8 15 -16
3 -14 -21 -12 -30 5 -30 9 0 12 -6 8 -16 -6 -16 -7 -16 -18 0 -13 18 -45 22
-45 6 0 -6 7 -13 15 -16 8 -4 12 -10 9 -16 -3 -5 -11 -2 -18 7 -11 15 -17 10
-54 -39 -24 -31 -70 -85 -104 -121 -58 -62 -60 -66 -42 -80 24 -18 31 -18 37
-2 4 9 6 9 6 0 2 -21 -19 -25 -45 -8 -25 16 -26 15 -72 -26 -44 -40 -75 -80
-39 -51 12 10 21 11 37 2 11 -6 26 -8 33 -4 9 5 9 4 0 -6 -8 -9 -16 -9 -30 -2
-13 8 -26 6 -53 -10 -19 -11 -26 -13 -16 -4 44 36 -1 12 -94 -49 -105 -69
-263 -151 -400 -208 -157 -64 -385 -120 -366 -88 3 4 27 14 53 21 89 24 297
107 416 164 119 58 300 175 398 255 180 149 361 369 523 639 21 34 42 60 47
56 6 -3 1 -19 -10 -37z m773 29 c-10 -8 -21 -12 -24 -10 -5 6 21 24 34 24 6 0
1 -6 -10 -14z m31 -16 c-10 -11 -24 -20 -32 -20 -8 0 -11 -4 -8 -10 4 -6 16
-4 33 6 l27 16 -22 -20 c-12 -11 -20 -22 -17 -25 3 -2 -2 -7 -10 -10 -9 -4
-18 -1 -22 5 -4 7 -3 8 4 4 7 -4 12 -3 12 3 0 5 -5 13 -12 17 -7 5 -2 15 18
31 36 28 54 30 29 3z m-70 -10 c3 -6 -1 -7 -9 -4 -18 7 -21 14 -7 14 6 0 13
-4 16 -10z m-78 -41 c2 -21 -49 -59 -77 -58 -8 0 4 10 28 22 41 21 54 37 30
37 -9 0 -8 4 2 10 8 5 15 10 15 10 1 0 1 -9 2 -21z m263 -4 c-7 -8 -10 -25 -6
-39 3 -14 2 -28 -4 -31 -6 -4 -7 1 -3 11 4 12 3 15 -6 10 -8 -5 -10 -18 -7
-32 4 -13 2 -24 -2 -24 -5 0 -14 -10 -20 -22 -8 -18 -11 -19 -11 -6 -1 9 4 20
10 24 6 3 9 17 6 30 -2 13 1 25 7 28 7 3 7 5 -1 5 -7 1 -22 -8 -33 -19 -15
-15 -20 -16 -20 -5 0 7 8 19 18 24 12 8 13 10 3 11 -21 0 19 29 42 30 9 0 17
5 17 10 0 6 5 10 11 10 8 0 8 -5 -1 -15z m-835 -5 c4 -6 11 -8 16 -5 5 4 9 -4
9 -17 0 -18 -2 -20 -9 -9 -8 12 -12 13 -26 1 -12 -10 -19 -10 -27 -2 -9 9 -6
12 13 13 17 1 19 3 6 6 -9 2 -15 9 -12 14 8 12 22 12 30 -1z m149 1 c-3 -3 -9
-6 -13 -6 -5 0 -22 -15 -40 -34 -17 -18 -24 -30 -15 -27 10 4 14 1 12 -6 -7
-19 -25 -20 -32 -3 -7 18 56 82 80 82 8 0 11 -3 8 -6z m385 -5 c-11 -10 -103
-46 -107 -42 -2 3 13 12 34 20 22 9 46 20 54 25 14 8 29 6 19 -3z m-479 -11
c0 -8 -2 -15 -4 -15 -2 0 -6 7 -10 15 -3 8 -1 15 4 15 6 0 10 -7 10 -15z
m-117 -10 c-3 -9 -8 -14 -10 -11 -3 3 -2 9 2 15 9 16 15 13 8 -4z m649 -34 c1
-29 2 -30 18 -16 9 8 19 15 23 15 4 0 -15 -19 -41 -42 -26 -24 -48 -46 -50
-50 -2 -4 -11 -1 -20 8 -17 17 -7 46 16 50 7 1 8 0 2 -3 -5 -2 -10 -14 -10
-24 0 -19 1 -19 24 -2 13 10 22 22 19 26 -3 4 1 14 7 22 10 12 9 16 -4 21 -13
5 -14 9 -5 20 15 19 20 13 21 -25z m58 29 c0 -5 -5 -10 -11 -10 -5 0 -7 5 -4
10 3 6 8 10 11 10 2 0 4 -4 4 -10z m-717 -43 c-7 -11 -23 2 -23 19 0 12 2 12
14 2 8 -7 12 -16 9 -21z m54 17 c-3 -3 -12 -4 -19 -1 -8 3 -5 6 6 6 11 1 17
-2 13 -5z m63 2 c0 -2 -7 -9 -15 -16 -13 -11 -14 -10 -9 4 5 14 24 23 24 12z
m510 -6 c12 -8 9 -10 -12 -10 -15 0 -32 -8 -37 -17 -6 -11 -11 -13 -11 -5 0
16 21 41 35 41 6 1 17 -4 25 -9z m-666 -24 c-3 -9 -10 -16 -15 -16 -6 0 -5 9
1 21 13 24 24 20 14 -5z m846 5 c15 -30 12 -33 -10 -11 -22 22 -25 30 -10 30
5 0 14 -9 20 -19z m46 -8 c-10 -10 -19 5 -10 18 6 11 8 11 12 0 2 -7 1 -15 -2
-18z m-451 7 c-3 -5 -14 -10 -23 -9 -14 0 -13 2 3 9 27 11 27 11 20 0z m55 0
c0 -5 -4 -10 -9 -10 -6 0 -13 5 -16 10 -3 6 1 10 9 10 9 0 16 -4 16 -10z
m-326 -17 c4 -9 1 -23 -7 -30 -12 -12 -16 -12 -26 1 -10 12 -10 18 1 30 17 20
24 20 32 -1z m650 11 c9 -3 16 -12 16 -19 0 -20 21 -30 31 -14 5 8 9 10 9 4 0
-30 -17 -32 -48 -4 -40 36 -43 46 -8 33z m-852 -69 c-6 -31 -29 -27 -27 5 1
14 5 33 10 40 7 11 10 10 15 -5 4 -10 5 -28 2 -40z m63 45 c-3 -5 -11 -10 -16
-10 -6 0 -7 5 -4 10 3 6 11 10 16 10 6 0 7 -4 4 -10z m339 -1 c-4 -8 0 -9 15
-4 25 8 64 -3 56 -16 -4 -5 -16 -9 -28 -8 -21 0 -21 1 -2 9 18 8 18 9 2 9 -10
1 -27 -3 -37 -9 -15 -8 -18 -6 -15 8 5 23 4 22 11 22 3 0 2 -5 -2 -11z m426
-10 c0 -6 -4 -7 -10 -4 -5 3 -10 11 -10 16 0 6 5 7 10 4 6 -3 10 -11 10 -16z
m-463 -5 c-3 -3 -12 -4 -19 -1 -8 3 -5 6 6 6 11 1 17 -2 13 -5z m436 -17 c-5
-8 -8 -7 -11 2 -3 9 -12 6 -31 -11 l-26 -23 24 27 c22 25 59 29 44 5z m-516 7
c-3 -3 -12 -4 -19 -1 -8 3 -5 6 6 6 11 1 17 -2 13 -5z m306 -11 c-7 -2 -19 -2
-25 0 -7 3 -2 5 12 5 14 0 19 -2 13 -5z m60 -18 c4 -8 1 -17 -6 -21 -7 -4 -9
-4 -5 1 4 4 3 14 -3 22 -7 8 -8 13 -1 13 5 0 12 -7 15 -15z m233 -1 c-3 -8 -2
-12 4 -9 6 3 10 1 10 -4 0 -15 -15 -14 -29 2 -11 14 -5 27 12 27 5 0 6 -7 3
-16z m34 6 c0 -5 -4 -10 -10 -10 -5 0 -10 5 -10 10 0 6 5 10 10 10 6 0 10 -4
10 -10z m-645 -9 c3 -5 1 -12 -4 -15 -12 -8 -41 3 -41 15 0 12 37 12 45 0z
m339 -2 c-6 -11 -41 -12 -47 -1 -3 4 8 7 24 8 15 1 26 -3 23 -7z m180 -5 c3
-8 2 -13 -3 -9 -10 5 -71 -23 -82 -39 -4 -5 -11 -6 -17 -2 -5 3 -12 -1 -16 -9
-3 -8 -12 -15 -20 -15 -10 0 -13 -6 -10 -15 4 -8 2 -15 -4 -15 -6 0 -8 -9 -5
-20 5 -21 -11 -28 -22 -10 -3 6 -1 10 6 10 8 0 9 3 0 14 -9 11 -1 21 36 52 26
21 54 38 63 36 9 -1 25 6 35 17 25 24 31 25 39 5z m-824 -26 c0 -10 2 -10 9 0
7 11 9 11 14 -1 4 -10 0 -14 -11 -12 -9 2 -20 4 -24 4 -12 1 -9 21 2 21 6 0
10 -6 10 -12z m620 8 c0 -3 -4 -8 -10 -11 -5 -3 -10 -1 -10 4 0 6 5 11 10 11
6 0 10 -2 10 -4z m-410 -16 c0 -5 -2 -10 -4 -10 -3 0 -8 5 -11 10 -3 6 -1 10
4 10 6 0 11 -4 11 -10z m416 -17 c-10 -11 -37 -12 -30 -2 3 5 12 9 21 9 9 0
13 -3 9 -7z m-56 -23 c13 -9 11 -13 -10 -29 -21 -17 -26 -18 -33 -5 -5 9 -4
21 3 30 15 17 20 17 40 4z m165 -10 c-28 -12 -37 -12 -30 0 3 6 16 10 28 9 21
0 21 -1 2 -9z m10 -29 c-3 -6 -11 -11 -17 -11 -6 0 -6 6 2 15 14 17 26 13 15
-4z m-262 -40 c9 -9 8 -11 -7 -5 -14 5 -17 4 -11 -5 6 -10 2 -10 -16 0 -13 7
-28 12 -32 11 -5 -1 -6 2 -3 7 8 12 54 7 69 -8z m317 -2 c9 -16 7 -27 -9 -52
-11 -18 -21 -26 -21 -19 0 7 -4 11 -8 8 -4 -2 -8 10 -8 29 0 39 16 37 17 -3
l0 -27 12 23 c8 18 8 28 -1 43 -7 11 -8 19 -2 19 5 0 14 -9 20 -21z m-245 -19
c-8 -14 8 -13 22 1 9 9 11 7 9 -7 -2 -12 -11 -18 -24 -17 -34 1 -35 2 -22 18
14 17 24 20 15 5z m-111 -9 c3 -5 -2 -15 -12 -22 -15 -12 -16 -12 -5 2 7 9 10
19 6 22 -3 4 -4 7 0 7 3 0 8 -4 11 -9z m-590 -13 c-4 -7 -16 -26 -27 -41 -10
-16 -16 -31 -13 -34 7 -8 9 -6 33 34 l20 33 -1 -34 c-1 -19 -5 -38 -9 -43 -5
-4 -5 1 -1 12 7 20 7 20 -14 2 -11 -11 -26 -16 -32 -12 -7 4 -24 -7 -40 -26
-31 -36 -38 -55 -17 -43 7 4 8 3 4 -2 -5 -5 -16 -9 -25 -9 -9 0 -21 -10 -27
-22 -5 -13 -16 -23 -23 -23 -15 0 -15 0 70 94 35 37 71 81 81 97 18 28 36 42
21 17z m81 2 c-3 -5 -12 -10 -18 -10 -7 0 -6 4 3 10 19 12 23 12 15 0z m576
-13 c-6 -8 -7 -18 -3 -22 4 -5 1 -5 -6 -1 -10 6 -10 11 -1 22 6 8 14 14 16 14
3 0 0 -6 -6 -13z m-301 -7 c0 -5 -4 -10 -10 -10 -5 0 -10 5 -10 10 0 6 5 10
10 10 6 0 10 -4 10 -10z m175 0 c4 -6 11 -7 17 -4 7 5 8 2 3 -5 -5 -9 -10 -10
-18 -2 -18 18 -31 12 -16 -6 13 -16 12 -17 -3 -5 -11 9 -18 10 -23 2 -8 -13
-35 -13 -35 0 0 6 9 10 19 10 11 0 23 5 26 10 8 13 22 13 30 0z m-99 -33 c9 3
12 0 9 -9 -6 -15 -55 -13 -55 1 0 14 14 21 23 12 5 -5 16 -7 23 -4z m218 -22
c-5 -12 -9 -12 -30 2 -28 18 -31 25 -7 16 11 -5 14 -3 8 6 -6 10 -3 11 13 2
13 -7 19 -17 16 -26z m-169 1 c-16 -14 -41 -30 -55 -37 -14 -7 -33 -20 -43
-28 -9 -8 -20 -11 -24 -8 -3 4 0 7 8 7 9 0 5 8 -11 21 -23 19 -23 20 -2 9 25
-12 66 -4 57 11 -3 5 0 6 8 3 8 -3 23 3 33 14 17 17 37 29 54 31 3 1 -8 -10
-25 -23z m120 -6 c3 -5 1 -10 -4 -10 -6 0 -11 5 -11 10 0 6 2 10 4 10 3 0 8
-4 11 -10z m-31 -33 c-7 -18 -24 -23 -24 -7 0 5 -7 7 -16 3 -15 -6 -15 -8 2
-20 10 -7 24 -11 31 -9 7 3 13 1 13 -4 0 -6 -6 -10 -14 -10 -8 0 -23 -3 -33
-6 -14 -4 -15 -4 -4 4 11 8 10 12 -7 21 -14 7 -23 8 -27 1 -3 -5 0 -10 7 -10
8 0 5 -5 -5 -11 -12 -7 -22 -8 -28 -2 -6 6 10 23 43 45 52 35 75 37 62 5z
m283 -8 c-13 -21 -23 -24 -32 -9 -9 15 14 40 30 34 11 -5 12 -10 2 -25z m-197
6 c0 -8 -7 -15 -15 -15 -9 0 -12 6 -9 15 4 8 10 15 15 15 5 0 9 -7 9 -15z
m-726 -45 c-6 -6 -10 -3 -10 10 0 13 4 16 10 10 7 -7 7 -13 0 -20z m348 -26
c14 -8 11 -12 -23 -31 -21 -12 -39 -18 -39 -13 0 4 13 13 30 20 16 7 27 16 24
21 -3 6 -22 0 -42 -12 -37 -21 -37 -21 -13 0 24 22 13 28 -20 11 -12 -7 -19
-7 -19 -1 0 20 70 23 102 5z m497 -9 c20 12 11 -1 -16 -26 -16 -13 -22 -17
-15 -9 13 16 17 34 4 26 -4 -2 -8 4 -8 15 0 19 1 19 12 4 7 -9 17 -14 23 -10z
m-664 -15 c3 -5 -1 -10 -9 -10 -8 0 -18 5 -21 10 -3 6 1 10 9 10 8 0 18 -4 21
-10z m267 -2 c-8 -8 -9 -15 -1 -25 14 -16 3 -17 -15 -1 -11 11 -11 15 3 25 21
16 29 17 13 1z m33 -18 c3 -5 2 -10 -4 -10 -5 0 -13 5 -16 10 -3 6 -2 10 4 10
5 0 13 -4 16 -10z m-205 -15 c0 -2 -13 -11 -28 -19 -24 -13 -29 -13 -29 -1 0
8 4 12 9 9 4 -3 16 0 25 5 21 12 23 13 23 6z m114 -9 c-3 -7 -17 -19 -32 -25
-27 -12 -27 -12 3 13 35 30 36 30 29 12z m-548 -15 c0 -11 -4 -17 -9 -14 -5 3
-13 -1 -18 -8 -4 -7 -11 -10 -15 -6 -4 4 3 16 16 27 28 24 26 24 26 1z m957 6
c-3 -4 -11 -6 -18 -3 -7 2 -12 -3 -11 -12 0 -10 -6 -16 -16 -16 -9 1 -14 -4
-12 -11 7 -18 -25 -40 -62 -41 -18 0 -31 2 -29 6 3 4 17 6 32 4 36 -4 51 10
47 43 -4 37 0 41 40 40 19 -1 32 -5 29 -10z m-668 -10 c6 0 26 3 45 6 26 5 22
2 -13 -9 -44 -14 -49 -14 -65 2 -16 17 -16 17 3 10 11 -5 25 -9 30 -9z m195
-17 c0 -5 -5 -10 -11 -10 -5 0 -7 5 -4 10 3 6 8 10 11 10 2 0 4 -4 4 -10z m80
0 c0 -5 -5 -10 -11 -10 -5 0 -7 5 -4 10 3 6 8 10 11 10 2 0 4 -4 4 -10z m-247
-17 c-12 -2 -27 -11 -33 -19 -7 -8 -18 -14 -24 -14 -6 0 0 9 14 20 14 11 34
19 45 18 18 -1 18 -1 -2 -5z m151 -6 c16 -12 15 -13 -11 -11 -35 2 -35 2 -28
14 8 13 18 13 39 -3z m-336 -29 c-19 -11 4 -10 37 2 14 5 24 6 21 1 -11 -17
-56 -21 -82 -8 l-26 14 31 0 c20 0 27 -3 19 -9z m97 2 c-3 -5 -12 -10 -18 -10
-7 0 -6 4 3 10 19 12 23 12 15 0z m-315 -26 c-8 -8 -21 -19 -31 -25 -15 -7
-17 -6 -13 6 4 8 2 15 -4 15 -6 0 -12 -5 -14 -12 -2 -6 -15 -13 -29 -15 -23
-3 -23 -2 6 17 17 11 37 18 45 15 8 -2 22 0 30 5 22 14 24 12 10 -6z m479 -8
c-8 -8 -25 -17 -39 -20 -24 -7 -24 -6 -6 8 11 9 26 16 33 16 7 0 13 5 13 12 0
6 3 8 7 4 4 -3 0 -13 -8 -20z m-204 4 c-27 -12 -43 -12 -25 0 8 5 22 9 30 9
10 0 8 -3 -5 -9z m150 0 c-3 -5 -11 -10 -16 -10 -6 0 -7 5 -4 10 3 6 11 10 16
10 6 0 7 -4 4 -10z m-205 -10 c13 -8 13 -10 -2 -10 -9 0 -20 5 -23 10 -8 13 5
13 25 0z m-215 -19 c-3 -6 -11 -11 -17 -11 -6 0 -6 6 2 15 14 17 26 13 15 -4z
m385 15 c0 -2 -7 -7 -16 -10 -8 -3 -12 -2 -9 4 6 10 25 14 25 6z m20 -16 c0
-5 -5 -10 -11 -10 -5 0 -7 5 -4 10 3 6 8 10 11 10 2 0 4 -4 4 -10z m-330 -20
c0 -5 -4 -10 -10 -10 -5 0 -10 5 -10 10 0 6 5 10 10 10 6 0 10 -4 10 -10z
m280 -5 c0 -2 -16 -13 -36 -26 -20 -12 -31 -24 -26 -28 6 -3 -13 -7 -41 -8
l-51 -1 54 19 c52 18 74 35 64 50 -2 4 5 5 16 2 11 -3 20 -7 20 -8z m-255 -27
c-19 -11 -30 -5 -21 11 4 6 14 7 22 4 15 -5 14 -7 -1 -15z m171 7 c-15 -8 -33
-15 -40 -15 -16 1 36 29 54 30 8 0 2 -7 -14 -15z m212 -3 c2 -7 -3 -12 -12
-12 -9 0 -16 7 -16 16 0 17 22 14 28 -4z m-298 -26 c0 -2 -7 -7 -16 -10 -8 -3
-12 -2 -9 4 6 10 25 14 25 6z m620 -22 c-8 -8 -23 -20 -34 -25 -13 -6 -10 0 9
15 34 29 43 33 25 10z m-680 -9 c-7 -8 -20 -15 -29 -15 -11 0 -8 5 9 14 33 19
35 19 20 1z m630 0 c0 -1 -6 -7 -13 -13 -10 -8 -13 -6 -13 7 0 11 6 17 13 14
7 -3 13 -6 13 -8z m-598 -17 c-8 -8 -8 -15 -1 -24 7 -8 2 -14 -17 -18 -14 -4
-29 -5 -32 -1 -3 3 2 5 12 5 10 0 14 5 10 12 -4 6 1 17 11 25 23 16 33 17 17
1z m-68 -23 c3 3 2 0 -2 -5 -11 -13 -44 -2 -36 12 4 5 11 5 18 -1 7 -6 16 -9
20 -6z m511 -35 c-3 -5 -12 -10 -18 -10 -7 0 -6 4 3 10 19 12 23 12 15 0z m65
6 c0 -2 -7 -7 -16 -10 -8 -3 -12 -2 -9 4 6 10 25 14 25 6z m20 -10 c0 -2 -12
-11 -27 -20 l-28 -17 24 20 c23 21 31 25 31 17z m-60 -16 c0 -5 -4 -10 -10
-10 -5 0 -10 5 -10 10 0 6 5 10 10 10 6 0 10 -4 10 -10z m-30 -14 c0 -2 -7 -7
-16 -10 -8 -3 -12 -2 -9 4 6 10 25 14 25 6z m20 -13 c0 -15 -77 -52 -97 -47
-12 3 -24 1 -27 -5 -4 -6 -17 -11 -29 -11 -25 0 -54 -36 -35 -42 8 -3 6 -7 -4
-10 -11 -5 -15 -2 -13 10 2 9 4 22 4 29 1 11 31 26 56 28 6 0 9 5 8 10 -1 6
10 11 23 11 13 1 24 -2 24 -7 0 -11 28 -1 60 22 29 21 30 22 30 12z m-610 -13
c0 -5 -4 -10 -10 -10 -5 0 -10 5 -10 10 0 6 5 10 10 10 6 0 10 -4 10 -10z
m480 -64 c0 -2 -7 -7 -16 -10 -8 -3 -12 -2 -9 4 6 10 25 14 25 6z m-153 -52
c-3 -3 -12 -4 -19 -1 -8 3 -5 6 6 6 11 1 17 -2 13 -5z m30 -15 c-23 -13 -82
-31 -73 -22 8 8 65 30 81 32 6 0 2 -4 -8 -10z m-168 -59 c8 -5 -6 -6 -31 -3
-28 3 -48 1 -52 -6 -10 -16 -46 -14 -46 2 0 8 3 17 7 20 8 8 101 -2 122 -13z
m-538 -47 c13 -16 12 -17 -3 -4 -17 13 -22 21 -14 21 2 0 10 -8 17 -17z m396
-5 c-3 -8 -6 -5 -6 6 -1 11 2 17 5 13 3 -3 4 -12 1 -19z m-57 2 c0 -5 -4 -10
-10 -10 -5 0 -10 5 -10 10 0 6 5 10 10 10 6 0 10 -4 10 -10z m-232 -25 c14
-14 -9 -13 -39 0 l-34 16 34 -6 c19 -3 37 -7 39 -10z m861 -19 c-59 -55 -325
-144 -539 -180 -113 -19 -297 -37 -360 -35 l-45 2 55 9 c30 5 112 18 181 29
214 33 375 78 664 183 39 14 72 26 75 26 3 -1 -11 -15 -31 -34z m-760 8 c10
-9 -66 -3 -79 6 -10 7 -1 8 30 4 25 -4 47 -8 49 -10z m118 10 c-3 -3 -12 -4
-19 -1 -8 3 -5 6 6 6 11 1 17 -2 13 -5z m-410 -19 c0 -8 -4 -12 -9 -9 -5 3 -6
10 -3 15 9 13 12 11 12 -6z m197 -10 c-10 -8 -26 -14 -34 -14 -9 0 -4 6 10 14
33 19 49 19 24 0z m133 9 c-3 -3 -12 -4 -19 -1 -8 3 -5 6 6 6 11 1 17 -2 13
-5z m-80 -20 c-3 -3 -12 -4 -19 -1 -8 3 -5 6 6 6 11 1 17 -2 13 -5z m-237 -34
c0 -5 -15 -10 -32 -9 -31 1 -32 1 -8 9 35 11 40 11 40 0z m57 4 c-3 -3 -12 -4
-19 -1 -8 3 -5 6 6 6 11 1 17 -2 13 -5z m-184 -11 c-7 -2 -21 -2 -30 0 -10 3
-4 5 12 5 17 0 24 -2 18 -5z m-53 -7 c0 -2 -11 -6 -25 -8 -13 -3 -22 -1 -19 3
5 9 44 13 44 5z m1520 -620 c0 -2 -8 -10 -17 -17 -16 -13 -17 -12 -4 4 13 16
21 21 21 13z m-72 -61 c-2 0 -16 -9 -33 -20 -23 -14 -27 -15 -17 -3 10 13 10
17 0 20 -7 3 2 5 20 5 17 0 31 -1 30 -2z m-375 -82 c-7 -2 -19 -2 -25 0 -7 3
-2 5 12 5 14 0 19 -2 13 -5z m-156 -9 c-3 -3 -12 -4 -19 -1 -8 3 -5 6 6 6 11
1 17 -2 13 -5z m332 -13 c2 -1 -2 -8 -10 -17 -8 -10 -21 -13 -38 -9 -33 8 -52
26 -20 19 18 -4 20 -3 10 4 -12 8 17 10 58 3z m-649 -41 c0 -21 -5 -30 -16
-30 -14 0 -14 3 -4 15 10 12 10 19 1 28 -9 9 -13 7 -17 -11 -7 -23 -19 -29
-29 -13 -8 13 23 41 46 41 14 0 19 -7 19 -30z m-91 -17 c0 -25 -1 -25 -8 -8
-5 11 -7 23 -4 28 8 14 13 7 12 -20z m681 17 c0 -5 -6 -10 -14 -10 -8 0 -18 5
-21 10 -3 6 3 10 14 10 12 0 21 -4 21 -10z m-380 -45 c0 -10 -10 -15 -27 -15
l-28 1 25 14 c31 18 30 18 30 0z m45 5 c3 -5 1 -10 -4 -10 -6 0 -11 5 -11 10
0 6 2 10 4 10 3 0 8 -4 11 -10z m220 0 c13 -6 15 -9 5 -9 -8 0 -22 4 -30 9
-18 12 -2 12 25 0z m-153 -18 c-1 -9 6 -11 25 -6 21 5 25 4 18 -5 -8 -7 -29
-8 -70 -2 l-60 9 45 2 c42 2 43 3 15 10 l-30 9 30 -2 c18 -1 29 -7 27 -15z
m45 12 c-3 -3 -12 -4 -19 -1 -8 3 -5 6 6 6 11 1 17 -2 13 -5z m73 -9 c0 -7
-39 -12 -49 -5 -7 4 1 7 18 8 17 0 31 -1 31 -3z m-177 -32 c-13 -2 -33 -2 -45
0 -13 2 -3 4 22 4 25 0 35 -2 23 -4z m-353 -23 c-19 -12 -37 -13 -44 -1 -4 5
2 7 13 4 10 -3 22 0 26 7 4 6 10 9 13 5 4 -3 0 -10 -8 -15z m175 0 c-3 -5 -12
-10 -18 -10 -7 0 -6 4 3 10 19 12 23 12 15 0z m-88 -6 c-3 -3 -12 -4 -19 -1
-8 3 -5 6 6 6 11 1 17 -2 13 -5z"/>
<path d="M7865 6540 c-10 -11 -13 -20 -8 -20 6 0 14 7 17 16 5 14 9 14 23 3
14 -12 16 -12 12 0 -8 23 -24 23 -44 1z"/>
<path d="M8924 6799 c-5 -9 -2 -10 9 -6 9 3 18 2 21 -4 2 -5 3 -4 2 3 -3 17
-23 21 -32 7z"/>
<path d="M8180 6710 c0 -5 5 -10 10 -10 6 0 10 5 10 10 0 6 -4 10 -10 10 -5 0
-10 -4 -10 -10z"/>
<path d="M7980 6679 c0 -5 5 -7 10 -4 6 3 10 8 10 11 0 2 -4 4 -10 4 -5 0 -10
-5 -10 -11z"/>
<path d="M8500 6550 c0 -5 4 -10 9 -10 6 0 13 5 16 10 3 6 -1 10 -9 10 -9 0
-16 -4 -16 -10z"/>
<path d="M8375 6350 c-3 -5 -1 -10 4 -10 6 0 11 5 11 10 0 6 -2 10 -4 10 -3 0
-8 -4 -11 -10z"/>
<path d="M8657 6343 c-4 -3 -7 -11 -7 -17 0 -6 5 -5 12 2 6 6 9 14 7 17 -3 3
-9 2 -12 -2z"/>
<path d="M8495 6180 c3 -5 8 -10 11 -10 2 0 4 5 4 10 0 6 -5 10 -11 10 -5 0
-7 -4 -4 -10z"/>
<path d="M7608 5623 c7 -3 16 -2 19 1 4 3 -2 6 -13 5 -11 0 -14 -3 -6 -6z"/>
<path d="M8135 4660 c-16 -7 -17 -9 -3 -9 9 -1 20 4 23 9 7 11 7 11 -20 0z"/>
<path d="M5375 8579 c-211 -59 -301 -91 -435 -152 -289 -131 -523 -354 -625
-596 -54 -127 -95 -326 -95 -461 0 -54 -15 -83 -30 -60 -5 8 -20 51 -34 95
-75 242 -57 539 49 801 41 102 33 100 -29 -10 -169 -297 -207 -745 -93 -1106
32 -102 22 -353 -24 -579 -11 -52 -18 -95 -17 -97 2 -1 37 45 78 103 89 125
166 198 269 255 144 78 224 145 261 219 25 48 18 59 -37 59 -18 0 -33 3 -33 8
0 10 54 141 78 187 11 22 41 69 67 104 l47 64 -38 -7 c-20 -4 -70 -21 -111
-37 -40 -16 -76 -29 -79 -29 -10 0 9 45 32 77 13 17 24 35 24 38 0 7 -87 -38
-208 -109 -45 -27 -85 -47 -87 -44 -13 13 14 44 106 120 234 194 485 330 779
422 121 37 425 98 588 117 171 20 344 4 487 -45 11 -4 -5 6 -35 23 -75 41
-218 87 -318 101 -109 16 -396 8 -522 -15 -296 -53 -612 -187 -830 -352 -40
-29 -74 -53 -75 -51 -8 8 18 106 45 175 112 280 359 516 741 708 52 27 119 58
149 71 67 28 49 29 -45 3z m-1054 -1472 c14 -31 -9 -89 -45 -112 -36 -24 -56
-13 -56 31 0 28 8 44 34 70 40 40 53 42 67 11z"/>
<path d="M4808 7169 c182 -80 282 -231 282 -423 0 -185 -71 -325 -266 -526
-364 -377 -500 -618 -534 -950 -10 -105 -1 -236 25 -335 47 -177 174 -375 365
-565 223 -224 362 -321 796 -555 l159 -86 67 7 c66 6 67 7 45 24 -12 9 -57 35
-99 59 -42 23 -87 51 -100 62 l-23 20 25 -7 c14 -4 101 -44 193 -90 165 -82
169 -83 192 -66 33 25 55 66 57 107 1 34 2 35 41 35 l40 0 -59 38 c-119 78
-252 190 -390 327 -151 151 -234 255 -341 432 -81 135 -117 155 -48 27 44 -82
45 -85 18 -66 -141 102 -238 295 -262 523 l-8 84 -2 -98 c-2 -192 53 -359 180
-547 32 -47 70 -98 84 -113 38 -40 27 -48 -34 -26 -284 100 -500 451 -501 810
0 256 73 426 315 729 146 183 204 276 247 400 25 72 34 220 19 302 -43 219
-210 399 -435 467 -84 26 -105 26 -48 0z m348 -888 c-37 -71 -211 -279 -223
-267 -3 3 12 26 33 51 70 83 114 139 150 193 37 55 65 71 40 23z m-318 -404
c-59 -71 -68 -80 -75 -73 -3 3 20 38 53 78 32 39 60 66 62 60 2 -7 -16 -36
-40 -65z m-323 -755 c24 -104 50 -175 120 -327 30 -64 65 -161 65 -179 0 -14
-110 157 -160 248 -60 111 -87 244 -74 363 8 76 4 85 49 -105z"/>
<path d="M5674 7015 c-3 -8 2 -43 11 -77 9 -35 19 -108 22 -164 10 -180 -28
-354 -121 -550 -46 -96 -52 -115 -41 -130 11 -16 15 -13 38 27 63 107 125 270
152 399 22 106 20 287 -4 380 -31 122 -45 148 -57 115z"/>
<path d="M4162 4983 c-25 -48 -48 -125 -67 -227 -14 -71 -13 -83 1 -134 33
-115 129 -285 241 -429 240 -308 319 -424 391 -568 301 -608 208 -1178 -300
-1834 -118 -152 -409 -440 -538 -533 -455 -328 -997 -478 -1590 -439 -300 20
-508 57 -730 132 -374 125 -668 306 -940 578 -63 64 -110 109 -104 101 197
-268 346 -412 604 -585 353 -236 730 -375 1190 -437 144 -19 517 -16 675 6
441 60 804 197 1170 440 410 273 709 586 895 937 52 99 60 110 60 81 0 -52
-37 -223 -66 -304 -101 -280 -315 -573 -595 -813 -651 -557 -1657 -778 -2537
-556 -173 44 -403 125 -514 182 -76 39 -35 9 61 -45 470 -264 1286 -434 1897
-396 279 17 471 44 679 96 581 145 1090 426 1480 818 83 83 188 200 234 261
93 123 97 115 25 -50 -83 -189 -240 -422 -400 -595 -271 -294 -586 -500 -942
-616 -96 -31 -169 -63 -117 -50 472 113 840 287 1172 553 304 244 548 576 652
888 64 193 75 269 76 512 0 121 3 219 6 217 12 -7 98 -251 123 -347 46 -177
59 -294 53 -492 -4 -145 -10 -200 -30 -285 -57 -240 -144 -416 -314 -640 -38
-51 77 72 146 155 199 241 337 528 402 839 26 122 36 388 20 526 -43 378 -169
707 -405 1063 -168 253 -424 531 -596 648 -41 29 -84 62 -95 75 -11 12 -101
64 -200 115 -484 247 -856 591 -1018 939 -32 67 -47 64 -28 -6 8 -27 7 -43 -3
-61 -12 -24 -14 -22 -39 53 -14 44 -33 120 -42 169 -9 50 -18 92 -20 93 -2 2
-13 -14 -23 -35z m868 -1708 c89 -225 108 -493 50 -719 -22 -86 -85 -228 -119
-266 l-22 -25 19 40 c27 56 66 176 88 270 15 65 19 120 19 290 0 194 -2 218
-27 315 -15 58 -36 129 -47 158 -12 29 -21 56 -21 60 1 13 28 -43 60 -123z
m479 -448 c58 -167 75 -270 75 -482 1 -160 -3 -208 -22 -305 -42 -206 -121
-403 -227 -567 -85 -131 -251 -323 -353 -410 -67 -56 -54 -35 38 62 289 303
426 548 502 897 19 89 22 133 23 323 0 241 -10 318 -66 506 -16 54 -29 102
-29 106 1 17 29 -45 59 -130z"/>
<path d="M3844 4243 c19 -114 27 -344 16 -476 -24 -308 -103 -545 -262 -789
-107 -163 -282 -357 -463 -513 -126 -109 -130 -114 -42 -56 366 244 639 585
761 953 79 238 86 527 20 811 -25 103 -43 146 -30 70z"/>
<path d="M6345 4174 c37 -29 279 -142 360 -168 44 -14 119 -35 167 -46 89 -21
280 -51 287 -44 2 1 -7 5 -20 8 -160 32 -208 43 -289 67 -116 34 -232 80 -371
148 -58 28 -116 51 -129 51 -25 -1 -25 -1 -5 -16z"/>
<path d="M3976 4065 c4 -11 34 -72 65 -136 306 -621 384 -1003 285 -1394 -64
-251 -250 -531 -484 -725 -333 -279 -713 -444 -1147 -501 -116 -15 -414 -15
-530 0 -122 16 -274 48 -365 77 -41 13 -76 22 -77 20 -16 -16 190 -82 357
-114 394 -78 808 -49 1206 83 343 113 631 284 855 505 288 285 402 568 370
917 -30 329 -133 592 -449 1138 -76 131 -100 167 -86 130z"/>
</g>
</svg>
