<?xml version="1.0" standalone="no"?>
<!DOCTYPE svg PUBLIC "-//W3C//DTD SVG 20010904//EN"
 "http://www.w3.org/TR/2001/REC-SVG-20010904/DTD/svg10.dtd">
<svg version="1.0" xmlns="http://www.w3.org/2000/svg"
 width="360.000000pt" height="360.000000pt" viewBox="0 0 360.000000 360.000000"
 preserveAspectRatio="xMidYMid meet">

<g transform="translate(0.000000,360.000000) scale(0.100000,-0.100000)"
fill="#000000" stroke="none">
<path d="M0 1800 l0 -1800 1800 0 1800 0 0 1800 0 1800 -1800 0 -1800 0 0
-1800z m520 969 c96 -72 281 -209 412 -305 l236 -175 21 -72 c12 -40 26 -83
32 -96 11 -25 106 -150 123 -163 6 -4 7 -10 4 -13 -4 -4 -67 14 -140 40 -73
26 -153 53 -178 62 -42 14 -61 35 -305 346 -356 452 -397 507 -388 507 5 0 87
-59 183 -131z m2770 127 c0 -3 -79 -105 -176 -228 -96 -123 -243 -310 -326
-415 -83 -106 -152 -193 -154 -193 -1 0 -80 -27 -175 -60 -95 -33 -174 -60
-176 -60 -11 0 4 24 57 90 33 41 64 89 69 105 5 17 17 58 27 93 12 43 25 67
43 79 28 18 448 329 661 490 125 94 150 110 150 99z m-1305 -126 c98 -24 221
-84 297 -145 62 -49 154 -154 195 -224 l25 -44 -36 -33 c-20 -18 -36 -42 -36
-53 0 -36 -19 -23 -46 34 -59 120 -189 243 -317 300 -307 135 -677 2 -830
-299 -24 -48 -25 -49 -37 -25 -7 13 -28 38 -48 55 l-35 30 50 75 c126 186 283
289 518 342 57 13 225 6 300 -13z m-1674 -384 c123 -45 267 -98 354 -130 39
-15 89 -33 112 -42 31 -11 50 -27 74 -65 17 -27 54 -70 83 -94 l51 -45 -86 0
-87 0 -308 205 c-170 113 -304 205 -298 205 6 0 53 -15 105 -34z m3087 13
c-15 -11 -152 -102 -305 -203 l-279 -183 -82 -5 c-45 -3 -82 -1 -82 3 0 4 22
27 48 51 27 24 61 64 77 89 24 39 38 50 89 69 34 12 103 37 153 56 51 19 137
50 190 70 54 20 121 44 148 55 64 24 77 23 43 -2z m-1616 -105 c97 -72 102
-74 113 -54 6 11 14 17 19 13 4 -4 4 0 0 10 -5 14 0 17 22 18 25 0 26 1 9 9
-15 6 -7 9 30 9 43 0 47 -2 28 -11 -29 -14 -30 -32 -2 -23 15 5 19 4 15 -4 -4
-6 -1 -11 7 -11 20 0 57 -35 57 -54 0 -9 4 -16 10 -16 5 0 8 15 6 34 -1 19 1
33 6 30 4 -3 8 -29 7 -57 0 -29 -3 -46 -6 -39 -9 22 -23 13 -22 -15 0 -16 3
-22 6 -15 2 6 8 12 13 12 16 0 -44 -108 -69 -124 -37 -25 -16 -16 59 23 57 29
76 48 154 147 49 63 93 114 98 114 4 0 6 -10 4 -22 -3 -13 -10 -54 -17 -93
-10 -55 -24 -89 -70 -164 -54 -87 -68 -102 -178 -188 -66 -51 -123 -99 -127
-105 -6 -10 -5 -10 8 -1 8 7 19 9 23 5 5 -4 5 -1 1 6 -4 7 -1 12 8 12 22 0 30
-19 11 -27 -16 -5 -16 -7 -1 -15 18 -10 22 -38 6 -38 -5 0 -10 -12 -10 -27 0
-17 -3 -23 -8 -16 -8 12 -29 13 -49 0 -6 -4 -14 -1 -16 8 -4 11 -4 10 -3 -2 1
-10 7 -18 14 -18 20 0 18 -13 -6 -35 l-23 -21 6 28 c10 45 -10 7 -36 -71 -22
-67 -22 -69 -4 -83 11 -7 56 -42 100 -76 77 -61 80 -65 93 -123 8 -32 36 -149
63 -259 27 -110 51 -208 53 -217 7 -32 -10 -19 -27 20 -9 20 -84 181 -167 357
l-150 320 0 117 c0 64 -3 119 -7 121 -5 3 -6 -22 -5 -54 2 -36 -1 -65 -8 -74
-6 -8 -9 -24 -5 -37 5 -18 4 -20 -4 -8 -6 8 -11 26 -11 39 0 48 -9 14 -16 -59
-4 -49 -16 -95 -36 -139 -17 -36 -43 -95 -58 -131 -16 -36 -46 -105 -68 -155
-21 -49 -58 -135 -82 -190 -44 -102 -67 -142 -57 -95 3 14 26 129 52 255 25
127 50 239 54 251 5 11 46 49 92 83 46 35 84 66 84 70 -1 3 -7 26 -14 49 -9
33 -16 42 -28 38 -8 -4 -22 -1 -29 5 -10 8 -14 8 -14 0 0 -6 -17 -11 -40 -11
-34 0 -40 3 -40 22 0 20 -1 20 -18 5 -16 -15 -19 -15 -29 2 -9 14 -2 34 37
108 l47 91 -61 49 c-34 26 -82 64 -108 83 -65 48 -162 211 -177 295 -17 100
-19 115 -10 115 4 0 50 -53 102 -119 57 -71 105 -121 119 -124 21 -5 21 -5 6
7 -10 7 -18 21 -18 30 0 15 9 17 59 15 49 -2 66 2 94 21 l34 24 -64 55 c-36
30 -61 57 -55 59 5 1 45 -14 88 -36 44 -21 88 -41 99 -45 22 -7 27 -11 -97 76
-37 26 -68 51 -68 56 0 17 145 -43 165 -68 93 -118 41 -39 -78 117 -24 31 21
6 115 -64z m-1227 -248 c121 -42 247 -83 280 -91 58 -14 62 -13 126 11 l66 26
121 -38 c67 -21 122 -41 122 -45 0 -8 -22 -15 -215 -74 -66 -20 -132 -40 -147
-45 -25 -8 -60 10 -320 162 -161 94 -295 173 -298 176 -12 11 57 -10 265 -82z
m2770 75 c-6 -4 -140 -84 -298 -176 -264 -153 -290 -166 -315 -157 -15 6 -81
27 -147 47 -200 61 -217 67 -208 75 4 4 59 24 122 45 l113 37 67 -26 c67 -26
68 -26 132 -10 63 15 235 72 419 139 96 34 132 43 115 26z m-1806 -317 c52
-52 90 -98 87 -101 -3 -4 -43 19 -88 50 l-82 57 -51 -49 c-36 -36 -89 -69
-195 -121 l-145 -73 -80 26 c-44 14 -147 47 -230 72 -82 26 -195 62 -250 81
l-100 34 80 -6 c44 -3 114 -9 155 -14 293 -36 263 -35 332 -7 35 15 124 53
198 86 122 54 142 60 206 60 l71 1 92 -96z m902 56 c52 -23 112 -49 134 -59
171 -76 167 -75 273 -63 227 28 383 43 394 40 7 -3 -35 -19 -92 -37 -58 -18
-152 -48 -210 -66 -58 -19 -159 -50 -224 -71 l-119 -37 -141 69 c-103 51 -156
83 -197 121 l-55 52 -77 -54 c-43 -30 -83 -55 -89 -55 -9 0 -9 3 -1 11 6 6 9
19 6 28 -4 12 -3 13 4 3 7 -10 30 9 89 72 l79 85 66 1 c55 0 81 -7 160 -40z
m-311 -130 c0 -5 -8 -10 -17 -10 -15 0 -16 2 -3 10 19 12 20 12 20 0z m-37
-24 c4 -10 1 -13 -9 -9 -7 3 -14 0 -14 -6 0 -6 -5 -11 -12 -11 -6 0 -3 9 7 20
22 24 21 24 28 6z m-826 -78 c42 -92 167 -209 281 -265 70 -33 72 -36 57 -53
-9 -10 -19 -37 -22 -59 -3 -23 -10 -41 -16 -41 -23 0 -174 89 -232 137 -61 50
-128 129 -173 205 l-23 36 53 30 c66 37 63 37 75 10z m1193 -15 c28 -15 50
-30 50 -33 0 -4 -22 -38 -49 -76 -80 -114 -212 -227 -314 -269 -37 -15 -37
-15 -47 10 -6 15 -10 30 -10 35 0 5 -12 17 -26 26 l-25 17 70 37 c114 60 187
124 257 226 21 30 39 54 41 54 2 0 26 -12 53 -27z m-562 -298 l49 -130 -18
-155 c-9 -85 -23 -202 -29 -260 -28 -250 -50 -424 -54 -427 -4 -5 -18 81 -36
222 -6 50 -15 119 -20 155 -5 36 -16 119 -25 185 -9 66 -20 147 -25 181 -15
94 -13 112 31 224 23 58 45 116 50 129 6 14 13 21 19 15 4 -5 31 -67 58 -139z"/>
<path d="M400 2832 c0 -12 19 -26 26 -19 2 2 -2 10 -11 17 -9 8 -15 8 -15 2z"/>
<path d="M437 2803 c-3 -3 1 -16 10 -29 11 -17 19 -21 28 -14 6 5 15 7 18 3 4
-3 7 -4 7 -2 0 10 -58 48 -63 42z m31 -38 c-3 -3 -9 2 -12 12 -6 14 -5 15 5 6
7 -7 10 -15 7 -18z"/>
<path d="M3206 2826 c-16 -13 -26 -30 -23 -37 4 -11 6 -11 6 -1 1 7 13 24 29
37 35 31 26 32 -12 1z"/>
<path d="M320 2360 c8 -5 20 -10 25 -10 6 0 3 5 -5 10 -8 5 -19 10 -25 10 -5
0 -3 -5 5 -10z"/>
<path d="M3290 2360 c-13 -8 -13 -10 2 -10 9 0 20 5 23 10 8 13 -5 13 -25 0z"/>
<path d="M3256 2333 c-6 -14 -5 -15 5 -6 7 7 10 15 7 18 -3 3 -9 -2 -12 -12z"/>
<path d="M1907 2209 c7 -7 15 -10 18 -7 3 3 -2 9 -12 12 -14 6 -15 5 -6 -5z"/>
<path d="M1799 2143 c-13 -16 -12 -17 4 -4 16 13 21 21 13 21 -2 0 -10 -8 -17
-17z"/>
<path d="M1971 2120 c0 -8 4 -22 9 -30 12 -18 12 -2 0 25 -6 13 -9 15 -9 5z"/>
<path d="M1756 2111 c-12 -5 -15 -10 -9 -14 6 -4 16 0 23 8 14 17 13 17 -14 6z"/>
<path d="M1871 2054 c0 -11 3 -14 6 -6 3 7 2 16 -1 19 -3 4 -6 -2 -5 -13z"/>
<path d="M1580 2050 c-8 -5 -10 -10 -5 -10 6 0 17 5 25 10 8 5 11 10 5 10 -5
0 -17 -5 -25 -10z"/>
<path d="M1960 2031 c0 -5 7 -12 16 -15 14 -5 15 -4 4 9 -14 17 -20 19 -20 6z"/>
<path d="M1831 1724 c0 -11 3 -14 6 -6 3 7 2 16 -1 19 -3 4 -6 -2 -5 -13z"/>
<path d="M1666 1717 c3 -10 9 -15 12 -12 3 3 0 11 -7 18 -10 9 -11 8 -5 -6z"/>
<path d="M1787 1696 c-4 -10 -5 -21 -2 -24 9 -9 17 6 13 25 -3 17 -4 17 -11
-1z"/>
<path d="M1936 1678 c-6 -26 8 -46 19 -27 5 8 4 10 -3 5 -7 -4 -12 -3 -12 3 0
5 5 13 10 16 12 8 13 25 1 25 -5 0 -11 -10 -15 -22z"/>
<path d="M1703 1594 c3 -4 2 -14 -3 -23 -13 -25 3 -47 19 -27 9 11 10 20 1 35
-6 12 -14 21 -17 21 -3 0 -3 -3 0 -6z"/>
<path d="M1567 1573 c-4 -3 -7 -11 -7 -17 0 -6 5 -5 12 2 6 6 9 14 7 17 -3 3
-9 2 -12 -2z"/>
</g>
</svg>
